<svg xmlns="http://www.w3.org/2000/svg" xmlns:xlink="http://www.w3.org/1999/xlink" width="500" zoomAndPan="magnify" viewBox="0 0 375 374.999991" height="500" preserveAspectRatio="xMidYMid meet" version="1.0"><defs><clipPath id="8b44a35922"><path d="M 105 61.554688 L 258.605469 61.554688 L 258.605469 214.957031 L 105 214.957031 Z M 105 61.554688 " clip-rule="nonzero"/></clipPath><clipPath id="63f9da3ab7"><path d="M 215.433594 207.21875 L 112.9375 104.636719 C 103.089844 94.773438 103.089844 78.792969 112.9375 68.933594 C 122.785156 59.074219 138.761719 59.074219 148.609375 68.933594 L 251.109375 171.515625 C 260.957031 181.375 260.957031 197.359375 251.109375 207.21875 C 241.253906 217.078125 225.285156 217.078125 215.433594 207.21875 Z M 215.433594 207.21875 " clip-rule="nonzero"/></clipPath><clipPath id="9084856d9c"><path d="M 105 63.742188 L 255 63.742188 L 255 214.957031 L 105 214.957031 Z M 105 63.742188 " clip-rule="nonzero"/></clipPath><clipPath id="c74e964eb0"><path d="M 215.433594 207.21875 L 112.9375 104.636719 C 103.089844 94.773438 103.089844 78.792969 112.9375 68.933594 C 122.785156 59.074219 138.761719 59.074219 148.609375 68.933594 L 251.109375 171.515625 C 260.957031 181.375 260.957031 197.359375 251.109375 207.21875 C 241.253906 217.078125 225.285156 217.078125 215.433594 207.21875 Z M 215.433594 207.21875 " clip-rule="nonzero"/></clipPath><clipPath id="1065dcca17"><path d="M 3.589844 61.554688 L 157 61.554688 L 157 214.957031 L 3.589844 214.957031 Z M 3.589844 61.554688 " clip-rule="nonzero"/></clipPath><clipPath id="055612493b"><path d="M 149.429688 104.636719 L 46.933594 207.21875 C 37.082031 217.078125 21.113281 217.078125 11.265625 207.21875 C 1.410156 197.359375 1.410156 181.375 11.265625 171.515625 L 113.761719 68.933594 C 123.613281 59.074219 139.582031 59.074219 149.429688 68.933594 C 159.285156 78.792969 159.285156 94.773438 149.429688 104.636719 Z M 149.429688 104.636719 " clip-rule="nonzero"/></clipPath><clipPath id="5983a862c2"><path d="M 6.207031 65 L 157 65 L 157 214.957031 L 6.207031 214.957031 Z M 6.207031 65 " clip-rule="nonzero"/></clipPath><clipPath id="68f5f45a23"><path d="M 149.429688 104.636719 L 46.933594 207.21875 C 37.082031 217.078125 21.113281 217.078125 11.265625 207.21875 C 1.410156 197.359375 1.410156 181.375 11.265625 171.515625 L 113.761719 68.933594 C 123.613281 59.074219 139.582031 59.074219 149.429688 68.933594 C 159.285156 78.792969 159.285156 94.773438 149.429688 104.636719 Z M 149.429688 104.636719 " clip-rule="nonzero"/></clipPath><clipPath id="076cbaba1b"><path d="M 116.25 160 L 269.960938 160 L 269.960938 313.554688 L 116.25 313.554688 Z M 116.25 160 " clip-rule="nonzero"/></clipPath><clipPath id="7f8979cbdb"><path d="M 159.664062 167.875 L 262.164062 270.460938 C 272.015625 280.316406 272.015625 296.304688 262.164062 306.160156 C 252.3125 316.023438 236.34375 316.019531 226.492188 306.160156 L 123.996094 203.578125 C 114.144531 193.71875 114.144531 177.734375 123.996094 167.875 C 133.84375 158.015625 149.816406 158.015625 159.664062 167.875 Z M 159.664062 167.875 " clip-rule="nonzero"/></clipPath><clipPath id="c8e13ecb7c"><path d="M 120 160 L 269.960938 160 L 269.960938 311.980469 L 120 311.980469 Z M 120 160 " clip-rule="nonzero"/></clipPath><clipPath id="5df8061336"><path d="M 159.664062 167.875 L 262.164062 270.460938 C 272.015625 280.316406 272.015625 296.304688 262.164062 306.160156 C 252.3125 316.023438 236.34375 316.019531 226.492188 306.160156 L 123.996094 203.578125 C 114.144531 193.71875 114.144531 177.734375 123.996094 167.875 C 133.84375 158.015625 149.816406 158.015625 159.664062 167.875 Z M 159.664062 167.875 " clip-rule="nonzero"/></clipPath><clipPath id="2280a43a36"><path d="M 218 160 L 371.269531 160 L 371.269531 313.554688 L 218 313.554688 Z M 218 160 " clip-rule="nonzero"/></clipPath><clipPath id="0448af3b63"><path d="M 225.667969 270.460938 L 328.167969 167.875 C 338.015625 158.015625 353.988281 158.015625 363.839844 167.875 C 373.6875 177.734375 373.6875 193.71875 363.839844 203.578125 L 261.34375 306.160156 C 251.488281 316.019531 235.519531 316.023438 225.667969 306.160156 C 215.820312 296.304688 215.820312 280.316406 225.667969 270.460938 Z M 225.667969 270.460938 " clip-rule="nonzero"/></clipPath><clipPath id="15a7190d47"><path d="M 218 160 L 369 160 L 369 310 L 218 310 Z M 218 160 " clip-rule="nonzero"/></clipPath><clipPath id="e459095004"><path d="M 225.667969 270.460938 L 328.167969 167.875 C 338.015625 158.015625 353.988281 158.015625 363.839844 167.875 C 373.6875 177.734375 373.6875 193.71875 363.839844 203.578125 L 261.34375 306.160156 C 251.488281 316.019531 235.519531 316.023438 225.667969 306.160156 C 215.820312 296.304688 215.820312 280.316406 225.667969 270.460938 Z M 225.667969 270.460938 " clip-rule="nonzero"/></clipPath></defs><g clip-path="url(#8b44a35922)"><g clip-path="url(#63f9da3ab7)"><path fill="#f8a014" d="M 215.433594 207.21875 L 112.9375 104.636719 C 103.089844 94.773438 103.089844 78.792969 112.9375 68.933594 C 122.785156 59.074219 138.761719 59.074219 148.609375 68.933594 L 251.109375 171.515625 C 260.957031 181.375 260.957031 197.359375 251.109375 207.21875 C 241.253906 217.078125 225.285156 217.078125 215.433594 207.21875 " fill-opacity="1" fill-rule="nonzero"/></g></g><g clip-path="url(#9084856d9c)"><g clip-path="url(#c74e964eb0)"><path fill="#d07b1a" d="M 233.105469 232.375 L 86.40625 85.550781 L 107.972656 63.964844 L 254.671875 210.789062 L 233.105469 232.375 " fill-opacity="1" fill-rule="nonzero"/></g></g><g clip-path="url(#1065dcca17)"><g clip-path="url(#055612493b)"><path fill="#ed3b92" d="M 149.429688 104.636719 L 46.933594 207.21875 C 37.082031 217.078125 21.113281 217.078125 11.265625 207.21875 C 1.410156 197.359375 1.410156 181.375 11.265625 171.515625 L 113.761719 68.933594 C 123.613281 59.074219 139.582031 59.074219 149.429688 68.933594 C 159.285156 78.792969 159.285156 94.773438 149.429688 104.636719 " fill-opacity="1" fill-rule="nonzero"/></g></g><g clip-path="url(#5983a862c2)"><g clip-path="url(#68f5f45a23)"><path fill="#d72e85" d="M 174.566406 86.949219 L 27.867188 233.773438 L 6.300781 212.1875 L 153 65.363281 L 174.566406 86.949219 " fill-opacity="1" fill-rule="nonzero"/></g></g><g clip-path="url(#076cbaba1b)"><g clip-path="url(#7f8979cbdb)"><path fill="#68c9d3" d="M 159.664062 167.875 L 262.164062 270.460938 C 272.015625 280.316406 272.015625 296.304688 262.164062 306.160156 C 252.3125 316.023438 236.34375 316.019531 226.492188 306.160156 L 123.996094 203.578125 C 114.144531 193.71875 114.144531 177.734375 123.996094 167.875 C 133.84375 158.015625 149.816406 158.015625 159.664062 167.875 " fill-opacity="1" fill-rule="nonzero"/></g></g><g clip-path="url(#c8e13ecb7c)"><g clip-path="url(#5df8061336)"><path fill="#53a6bb" d="M 141.996094 142.71875 L 288.695312 289.542969 L 267.128906 311.128906 L 120.425781 164.304688 L 141.996094 142.71875 " fill-opacity="1" fill-rule="nonzero"/></g></g><g clip-path="url(#2280a43a36)"><g clip-path="url(#0448af3b63)"><path fill="#92d234" d="M 225.667969 270.460938 L 328.167969 167.875 C 338.015625 158.015625 353.988281 158.015625 363.839844 167.875 C 373.6875 177.734375 373.6875 193.71875 363.839844 203.578125 L 261.34375 306.160156 C 251.488281 316.019531 235.519531 316.023438 225.667969 306.160156 C 215.820312 296.304688 215.820312 280.316406 225.667969 270.460938 " fill-opacity="1" fill-rule="nonzero"/></g></g><g clip-path="url(#15a7190d47)"><g clip-path="url(#e459095004)"><path fill="#72b42d" d="M 200.53125 288.144531 L 347.234375 141.320312 L 368.800781 162.910156 L 222.101562 309.730469 L 200.53125 288.144531 " fill-opacity="1" fill-rule="nonzero"/></g></g></svg>