<svg width="202" height="59" viewBox="0 0 202 59" fill="none" xmlns="http://www.w3.org/2000/svg">
<g clip-path="url(#clip0_3_2)">
<path d="M108.609 37.0611L107.863 34.4918H102.93L102.164 37.0611H97.659L102.613 23.2722H108.078L113.093 37.0611H108.609ZM107.015 31.442L106.362 29.187C106.203 28.6879 106.017 28.041 105.8 27.2462C105.58 26.4514 105.437 25.883 105.371 25.5365C105.31 25.8576 105.187 26.3844 105.003 27.1168C104.819 27.8516 104.413 29.2933 103.788 31.442H107.015Z" fill="black"/>
<path d="M115.73 37.0611V23.3277H119.826V34.0667H125.668V37.0611H115.73Z" fill="black"/>
<path d="M138.4 37.0611L137.655 34.4918H132.721L131.955 37.0611H127.451L132.405 23.2722H137.869L142.884 37.0611H138.4ZM136.807 31.442L136.153 29.187C135.995 28.6879 135.808 28.041 135.591 27.2462C135.372 26.4514 135.229 25.883 135.162 25.5365C135.101 25.8576 134.979 26.3844 134.795 27.1168C134.611 27.8516 134.205 29.2933 133.579 31.442H136.807Z" fill="black"/>
<path d="M158.401 29.9079C158.401 32.1998 157.702 33.965 156.308 35.2035C154.911 36.4419 152.95 37.0611 150.424 37.0611H145.521V23.3277H150.771C153.202 23.3277 155.082 23.8914 156.41 25.0189C157.738 26.1464 158.401 27.7776 158.401 29.9079ZM154.142 30.0373C154.142 28.7804 153.866 27.8516 153.315 27.2462C152.763 26.6363 151.928 26.3313 150.812 26.3313H149.617V34.0205H150.526C151.772 34.0205 152.684 33.6947 153.264 33.0409C153.848 32.3824 154.142 31.3819 154.142 30.0373Z" fill="black"/>
<path d="M174.994 29.9079C174.994 32.1998 174.294 33.965 172.9 35.2035C171.503 36.4419 169.542 37.0611 167.016 37.0611H162.113V23.3277H167.363C169.794 23.3277 171.674 23.8914 173.002 25.0189C174.33 26.1464 174.994 27.7776 174.994 29.9079ZM170.734 30.0373C170.734 28.7804 170.458 27.8516 169.907 27.2462C169.355 26.6363 168.52 26.3313 167.404 26.3313H166.209V34.0205H167.118C168.364 34.0205 169.276 33.6947 169.856 33.0409C170.44 32.3824 170.734 31.3819 170.734 30.0373Z" fill="black"/>
<path d="M178.705 37.0611V23.3277H182.822V37.0611H178.705Z" fill="black"/>
<path d="M201.544 37.0611H196.172L190.625 27.3848H190.533C190.661 28.9074 190.727 30.0696 190.727 30.869V37.0611H187.101V23.3277H192.454L197.969 32.8745H198.041C197.939 31.4882 197.888 30.3769 197.888 29.5382V23.3277H201.544V37.0611Z" fill="black"/>
<mask id="mask0_3_2" style="mask-type:luminance" maskUnits="userSpaceOnUse" x="26" y="0" width="40" height="36">
<path d="M26.1514 0.360443H65.8548V35.9323H26.1514V0.360443Z" fill="white"/>
</mask>
<g mask="url(#mask0_3_2)">
<mask id="mask1_3_2" style="mask-type:luminance" maskUnits="userSpaceOnUse" x="26" y="0" width="40" height="36">
<path d="M54.7032 34.2064L28.2275 10.3694C25.6841 8.07741 25.6841 4.36449 28.2275 2.07482C30.7734 -0.21716 34.8975 -0.21716 37.4434 2.07482L63.9192 25.9119C66.4625 28.2015 66.4625 31.9168 63.9192 34.2064C61.3732 36.4984 57.2492 36.4984 54.7032 34.2064Z" fill="white"/>
</mask>
<g mask="url(#mask1_3_2)">
<path d="M54.7032 34.2064L28.2275 10.3694C25.6841 8.07741 25.6841 4.36449 28.2275 2.07482C30.7734 -0.21716 34.8975 -0.21716 37.4434 2.07482L63.9192 25.9119C66.4625 28.2015 66.4625 31.9168 63.9192 34.2064C61.3732 36.4984 57.2492 36.4984 54.7032 34.2064Z" fill="#F8A014"/>
</g>
</g>
<mask id="mask2_3_2" style="mask-type:luminance" maskUnits="userSpaceOnUse" x="26" y="0" width="39" height="36">
<path d="M26.1514 0.866425H64.9534V35.9323H26.1514V0.866425Z" fill="white"/>
</mask>
<g mask="url(#mask2_3_2)">
<mask id="mask3_3_2" style="mask-type:luminance" maskUnits="userSpaceOnUse" x="26" y="0" width="40" height="36">
<path d="M54.7032 34.2064L28.2275 10.3694C25.6841 8.07737 25.6841 4.36446 28.2275 2.07479C30.7734 -0.217191 34.8975 -0.217191 37.4434 2.07479L63.9192 25.9118C66.4625 28.2015 66.4625 31.9167 63.9192 34.2064C61.3732 36.4984 57.2492 36.4984 54.7032 34.2064Z" fill="white"/>
</mask>
<g mask="url(#mask3_3_2)">
<path d="M59.269 40.0519L21.3762 5.93557L26.9456 0.919556L64.841 35.0359L59.269 40.0519Z" fill="#D07B1A"/>
</g>
</g>
<mask id="mask4_3_2" style="mask-type:luminance" maskUnits="userSpaceOnUse" x="0" y="0" width="40" height="36">
<path d="M0 0.360443H39.6881V35.9323H0V0.360443Z" fill="white"/>
</mask>
<g mask="url(#mask4_3_2)">
<mask id="mask5_3_2" style="mask-type:luminance" maskUnits="userSpaceOnUse" x="0" y="0" width="40" height="36">
<path d="M37.6554 10.3694L11.1797 34.2064C8.63373 36.4984 4.50967 36.4984 1.96628 34.2064C-0.579661 31.9168 -0.579661 28.2015 1.96628 25.9119L28.442 2.07482C30.9854 -0.21716 35.112 -0.21716 37.6554 2.07482C40.2013 4.36449 40.2013 8.07741 37.6554 10.3694Z" fill="white"/>
</mask>
<g mask="url(#mask5_3_2)">
<path d="M37.6554 10.3694L11.1797 34.2064C8.63373 36.4984 4.50967 36.4984 1.96628 34.2064C-0.579661 31.9168 -0.579661 28.2015 1.96628 25.9119L28.442 2.07482C30.9854 -0.21716 35.112 -0.21716 37.6554 2.07482C40.2013 4.36449 40.2013 8.07741 37.6554 10.3694Z" fill="#ED3B92"/>
</g>
</g>
<mask id="mask6_3_2" style="mask-type:luminance" maskUnits="userSpaceOnUse" x="0" y="1" width="40" height="35">
<path d="M0.658813 1.06976H39.688V35.9324H0.658813V1.06976Z" fill="white"/>
</mask>
<g mask="url(#mask6_3_2)">
<mask id="mask7_3_2" style="mask-type:luminance" maskUnits="userSpaceOnUse" x="0" y="0" width="40" height="36">
<path d="M37.6554 10.3694L11.1797 34.2064C8.63373 36.4984 4.50967 36.4984 1.96628 34.2064C-0.579661 31.9168 -0.579661 28.2015 1.96628 25.9119L28.442 2.07482C30.9854 -0.21716 35.112 -0.21716 37.6554 2.07482C40.2013 4.36449 40.2013 8.07741 37.6554 10.3694Z" fill="white"/>
</mask>
<g mask="url(#mask7_3_2)">
<path d="M44.1492 6.25906L6.25379 40.3777L0.684387 35.3617L38.5773 1.24304L44.1492 6.25906Z" fill="#D72E85"/>
</g>
</g>
<mask id="mask8_3_2" style="mask-type:luminance" maskUnits="userSpaceOnUse" x="29" y="23" width="40" height="36">
<path d="M29.0855 23.2086H68.7889V58.9168H29.0855V23.2086Z" fill="white"/>
</mask>
<g mask="url(#mask8_3_2)">
<mask id="mask9_3_2" style="mask-type:luminance" maskUnits="userSpaceOnUse" x="29" y="23" width="40" height="36">
<path d="M40.2984 25.0639L66.7741 48.901C69.32 51.1929 69.32 54.9059 66.7741 57.1978C64.2307 59.4898 60.1041 59.4875 57.5607 57.1978L31.085 33.3608C28.5416 31.0688 28.5416 27.3559 31.085 25.0639C33.6284 22.7742 37.755 22.7742 40.2984 25.0639Z" fill="white"/>
</mask>
<g mask="url(#mask9_3_2)">
<path d="M40.2984 25.0639L66.7741 48.901C69.32 51.1929 69.32 54.9059 66.7741 57.1978C64.2307 59.4898 60.1041 59.4875 57.5607 57.1978L31.085 33.3608C28.5416 31.0688 28.5416 27.3559 31.085 25.0639C33.6284 22.7742 37.755 22.7742 40.2984 25.0639Z" fill="#68C9D3"/>
</g>
</g>
<mask id="mask10_3_2" style="mask-type:luminance" maskUnits="userSpaceOnUse" x="30" y="23" width="39" height="36">
<path d="M30.0712 23.2086H68.7889V58.4085H30.0712V23.2086Z" fill="white"/>
</mask>
<g mask="url(#mask10_3_2)">
<mask id="mask11_3_2" style="mask-type:luminance" maskUnits="userSpaceOnUse" x="29" y="23" width="40" height="36">
<path d="M40.2984 25.0639L66.7741 48.901C69.32 51.1929 69.32 54.9059 66.7741 57.1978C64.2307 59.4898 60.1041 59.4875 57.5607 57.1978L31.085 33.3608C28.5416 31.0688 28.5416 27.3559 31.085 25.0639C33.6284 22.7742 37.755 22.7742 40.2984 25.0639Z" fill="white"/>
</mask>
<g mask="url(#mask11_3_2)">
<path d="M35.7351 19.2184L73.628 53.3371L68.0586 58.3508L30.1631 24.2345L35.7351 19.2184Z" fill="#53A6BB"/>
</g>
</g>
<mask id="mask12_3_2" style="mask-type:luminance" maskUnits="userSpaceOnUse" x="55" y="23" width="40" height="36">
<path d="M55.2523 23.2086H94.9582V58.9168H55.2523V23.2086Z" fill="white"/>
</mask>
<g mask="url(#mask12_3_2)">
<mask id="mask13_3_2" style="mask-type:luminance" maskUnits="userSpaceOnUse" x="55" y="23" width="40" height="36">
<path d="M57.3488 48.901L83.8245 25.0639C86.3679 22.7742 90.4945 22.7742 93.0379 25.0639C95.5813 27.3559 95.5813 31.0688 93.0379 33.3608L66.5622 57.1978C64.0188 59.4875 59.8922 59.4898 57.3488 57.1978C54.8028 54.9059 54.8028 51.1929 57.3488 48.901Z" fill="white"/>
</mask>
<g mask="url(#mask13_3_2)">
<path d="M57.3488 48.901L83.8245 25.0639C86.3679 22.7742 90.4945 22.7742 93.0379 25.0639C95.5813 27.3559 95.5813 31.0688 93.0379 33.3608L66.5622 57.1978C64.0188 59.4875 59.8922 59.4898 57.3488 57.1978C54.8028 54.9059 54.8028 51.1929 57.3488 48.901Z" fill="#92D234"/>
</g>
</g>
<mask id="mask14_3_2" style="mask-type:luminance" maskUnits="userSpaceOnUse" x="55" y="23" width="40" height="36">
<path d="M55.2523 23.2086H94.5062V58.1451H55.2523V23.2086Z" fill="white"/>
</mask>
<g mask="url(#mask14_3_2)">
<mask id="mask15_3_2" style="mask-type:luminance" maskUnits="userSpaceOnUse" x="55" y="23" width="40" height="36">
<path d="M57.3488 48.901L83.8245 25.0639C86.3679 22.7742 90.4945 22.7742 93.0379 25.0639C95.5813 27.3559 95.5813 31.0688 93.0379 33.3608L66.5622 57.1978C64.0188 59.4875 59.8922 59.4898 57.3488 57.1978C54.8028 54.9059 54.8028 51.1929 57.3488 48.901Z" fill="white"/>
</mask>
<g mask="url(#mask15_3_2)">
<path d="M50.855 53.0113L88.7504 18.895L94.3198 23.911L56.4269 58.0273L50.855 53.0113Z" fill="#72B42D"/>
</g>
</g>
</g>
<defs>
<clipPath id="clip0_3_2">
<rect width="202" height="59" fill="white"/>
</clipPath>
</defs>
</svg>
